<svg width="233" height="207" viewBox="0 0 233 207" fill="none" xmlns="http://www.w3.org/2000/svg">
<rect x="61.9915" y="37.1785" width="128.25" height="127.217" rx="31" fill="#DBD8F0" stroke="#373737" stroke-width="2"/>
<circle cx="86.3178" cy="66.6736" r="6.71926" fill="#373737" fill-opacity="0.55"/>
<circle cx="117.002" cy="94.0044" r="6.71926" fill="#373737" fill-opacity="0.55"/>
<circle cx="84.7935" cy="185.59" r="6.71926" transform="rotate(105 84.7935 185.59)" fill="#373737" fill-opacity="0.55"/>
<circle cx="115.452" cy="191.094" r="6.71926" transform="rotate(-101.704 115.452 191.094)" fill="#373737" fill-opacity="0.55"/>
<circle cx="130.768" cy="55.3025" r="6.71926" fill="#373737" fill-opacity="0.55"/>
<circle cx="97.4139" cy="133.591" r="6.71926" transform="rotate(-108.604 97.4139 133.591)" fill="#373737" fill-opacity="0.55"/>
<circle cx="33.3216" cy="130.498" r="6.71926" transform="rotate(-108.604 33.3216 130.498)" fill="#373737" fill-opacity="0.55"/>
<circle cx="51.2725" cy="155.988" r="6.71926" transform="rotate(-3.60444 51.2725 155.988)" fill="#373737" fill-opacity="0.55"/>
<circle cx="39.4912" cy="79.6645" r="6.71926" transform="rotate(149.692 39.4912 79.6645)" fill="#373737" fill-opacity="0.55"/>
<circle cx="170.598" cy="92.983" r="6.71926" transform="rotate(114.541 170.598 92.983)" fill="#373737" fill-opacity="0.55"/>
<circle cx="170.348" cy="126.604" r="6.71926" transform="rotate(174.486 170.348 126.604)" fill="#373737" fill-opacity="0.55"/>
<circle cx="131.382" cy="14.5707" r="6.71926" transform="rotate(174.486 131.382 14.5707)" fill="#373737" fill-opacity="0.55"/>
<circle cx="130.124" cy="127.543" r="6.71926" transform="rotate(-70.9723 130.124 127.543)" fill="#373737" fill-opacity="0.55"/>
<circle cx="114.124" cy="130.543" r="6.71926" transform="rotate(-70.9723 114.124 130.543)" fill="#373737" fill-opacity="0.55"/>
<circle cx="51.7132" cy="177.945" r="6.71926" transform="rotate(34.0277 51.7132 177.945)" fill="#373737" fill-opacity="0.55"/>
<circle cx="26.129" cy="45.7773" r="6.71926" transform="rotate(-172.676 26.129 45.7773)" fill="#373737" fill-opacity="0.55"/>
<circle cx="127.097" cy="113.698" r="6.71926" transform="rotate(-179.577 127.097 113.698)" fill="#373737" fill-opacity="0.55"/>
<circle cx="77.8451" cy="185.264" r="6.71926" transform="rotate(-74.5768 77.8451 185.264)" fill="#373737" fill-opacity="0.55"/>
<circle cx="133.198" cy="177.442" r="6.71926" transform="rotate(78.7194 133.198 177.442)" fill="#373737" fill-opacity="0.55"/>
<circle cx="221.786" cy="92.5694" r="6.71926" transform="rotate(-179.577 221.786 92.5694)" fill="#373737" fill-opacity="0.55"/>
<circle cx="204.213" cy="106.008" r="6.71926" transform="rotate(-179.577 204.213 106.008)" fill="#373737" fill-opacity="0.55"/>
<circle cx="108.026" cy="53.2351" r="6.71926" fill="#DEB2F2"/>
<circle cx="175.219" cy="73.9099" r="6.71926" fill="#DEB2F2"/>
<circle cx="79.8405" cy="102.58" r="6.71926" transform="rotate(-108.604 79.8405 102.58)" fill="#DEB2F2"/>
<circle cx="101.548" cy="21.9565" r="6.71926" transform="rotate(-108.604 101.548 21.9565)" fill="#DEB2F2"/>
<circle cx="150.031" cy="142.066" r="6.71926" transform="rotate(174.486 150.031 142.066)" fill="#DEB2F2"/>
<circle cx="202.711" cy="128.28" r="6.71926" transform="rotate(174.486 202.711 128.28)" fill="#DEB2F2"/>
<circle cx="137.062" cy="85.3727" r="6.71926" transform="rotate(65.882 137.062 85.3727)" fill="#DEB2F2"/>
<circle cx="213.559" cy="145.331" r="6.71926" transform="rotate(65.882 213.559 145.331)" fill="#DEB2F2"/>
<circle cx="163.428" cy="59.0272" r="6.71926" transform="rotate(174.486 163.428 59.0272)" fill="#DEB2F2"/>
<circle cx="90.0332" cy="121.051" r="6.71926" transform="rotate(174.486 90.0332 121.051)" fill="#DEB2F2"/>
<circle cx="25.9408" cy="117.959" r="6.71926" transform="rotate(174.486 25.9408 117.959)" fill="#DEB2F2"/>
<circle cx="37.3118" cy="10.4523" r="6.71926" transform="rotate(174.486 37.3118 10.4523)" fill="#DEB2F2"/>
<circle cx="101.405" cy="105.537" r="6.71926" transform="rotate(174.486 101.405 105.537)" fill="#DEB2F2"/>
<circle cx="37.3121" cy="102.444" r="6.71926" transform="rotate(174.486 37.3121 102.444)" fill="#DEB2F2"/>
<circle cx="135.518" cy="129.312" r="6.71926" transform="rotate(174.486 135.518 129.312)" fill="#DEB2F2"/>
<circle cx="102.438" cy="179.975" r="6.71926" transform="rotate(174.486 102.438 179.975)" fill="#DEB2F2"/>
<circle cx="167.564" cy="144.818" r="6.71926" transform="rotate(174.486 167.564 144.818)" fill="#DEB2F2"/>
<circle cx="110.185" cy="150.497" r="6.71926" transform="rotate(65.882 110.185 150.497)" fill="#DEB2F2"/>
<circle cx="209.459" cy="82.8783" r="6.71926" transform="rotate(65.882 209.459 82.8783)" fill="#DEB2F2"/>
<circle cx="210.458" cy="166.006" r="6.71926" transform="rotate(65.882 210.458 166.006)" fill="#DEB2F2"/>
<circle cx="108.026" cy="73.9099" r="6.71926" fill="#3F51B5"/>
<circle cx="77.0143" cy="83.2136" r="6.71926" fill="#3F51B5"/>
<circle cx="44.6919" cy="50.9013" r="6.71926" transform="rotate(-96.8884 44.6919 50.9013)" fill="#3F51B5"/>
<circle cx="79.6683" cy="140.723" r="6.71926" transform="rotate(-108.604 79.6683 140.723)" fill="#3F51B5"/>
<circle cx="48.0926" cy="181.512" r="6.71926" transform="rotate(-108.604 48.0926 181.512)" fill="#3F51B5"/>
<circle cx="186.143" cy="21.8466" r="6.71926" transform="rotate(-108.604 186.143 21.8466)" fill="#3F51B5"/>
<circle cx="139.038" cy="100.787" r="6.71926" fill="#3F51B5"/>
<circle cx="157.645" cy="179.36" r="6.71926" fill="#3F51B5"/>
<circle cx="220.703" cy="51.1697" r="6.71926" fill="#3F51B5"/>
<circle cx="148.045" cy="121.488" r="6.71926" transform="rotate(174.486 148.045 121.488)" fill="#3F51B5"/>
<circle cx="190.306" cy="178.935" r="6.71926" transform="rotate(174.486 190.306 178.935)" fill="#3F51B5"/>
<circle cx="204.778" cy="28.0082" r="6.71926" transform="rotate(174.486 204.778 28.0082)" fill="#3F51B5"/>
<circle cx="128.282" cy="70.3898" r="6.71926" transform="rotate(174.486 128.282 70.3898)" fill="#3F51B5"/>
<circle cx="55.558" cy="15.2499" r="6.71926" transform="rotate(77.598 55.558 15.2499)" fill="#3F51B5"/>
<circle cx="151.024" cy="72.4572" r="6.71926" transform="rotate(174.486 151.024 72.4572)" fill="#3F51B5"/>
<circle cx="147.923" cy="51.7914" r="6.71926" transform="rotate(174.486 147.923 51.7914)" fill="#3F51B5"/>
<circle cx="72.9707" cy="123.629" r="6.71926" transform="rotate(65.882 72.9707 123.629)" fill="#3F51B5"/>
<circle cx="8.87831" cy="120.536" r="6.71926" transform="rotate(65.882 8.87831 120.536)" fill="#3F51B5"/>
<circle cx="66.7683" cy="170.147" r="6.71926" transform="rotate(65.882 66.7683 170.147)" fill="#3F51B5"/>
<circle cx="164.973" cy="25.4181" r="6.71926" transform="rotate(65.882 164.973 25.4181)" fill="#3F51B5"/>
<circle cx="155.159" cy="90.0307" r="6.71926" transform="rotate(174.486 155.159 90.0307)" fill="#3F51B5"/>
<circle cx="199.61" cy="48.6833" r="6.71926" transform="rotate(174.486 199.61 48.6833)" fill="#3F51B5"/>
<circle cx="92.5201" cy="87.3484" r="6.71926" fill="#B2ADD7"/>
<circle cx="46.0019" cy="31.5369" r="6.71926" fill="#B2ADD7"/>
<circle cx="131.802" cy="149.372" r="6.71926" fill="#B2ADD7"/>
<circle cx="43.9347" cy="65.648" r="6.71926" fill="#B2ADD7"/>
<circle cx="98.7223" cy="200.034" r="6.71926" fill="#B2ADD7"/>
<circle cx="112.93" cy="113.167" r="6.71926" transform="rotate(-108.604 112.93 113.167)" fill="#B2ADD7"/>
<circle cx="48.8376" cy="110.074" r="6.71926" transform="rotate(-108.604 48.8376 110.074)" fill="#B2ADD7"/>
<circle cx="25.0628" cy="29.4428" r="6.71926" transform="rotate(-108.604 25.0628 29.4428)" fill="#B2ADD7"/>
<circle cx="223.53" cy="121.19" r="6.71926" transform="rotate(-108.604 223.53 121.19)" fill="#B2ADD7"/>
<circle cx="196.663" cy="154.518" r="6.71926" transform="rotate(-108.604 196.663 154.518)" fill="#B2ADD7"/>
<circle cx="205.956" cy="74.6711" r="6.71926" transform="rotate(-108.604 205.956 74.6711)" fill="#B2ADD7"/>
<circle cx="162.188" cy="106.622" r="6.71926" transform="rotate(174.486 162.188 106.622)" fill="#B2ADD7"/>
<circle cx="74.3198" cy="22.8979" r="6.71926" transform="rotate(174.486 74.3198 22.8979)" fill="#B2ADD7"/>
<circle cx="91.0671" cy="48.6898" r="6.71926" transform="rotate(174.486 91.0671 48.6898)" fill="#B2ADD7"/>
<circle cx="225.453" cy="159.293" r="6.71926" transform="rotate(174.486 225.453 159.293)" fill="#B2ADD7"/>
<circle cx="200.643" cy="7.33389" r="6.71926" transform="rotate(174.486 200.643 7.33389)" fill="#B2ADD7"/>
</svg>
